<?xml version="1.0" encoding="utf-8"?>
<!-- Generator: Adobe Illustrator 24.3.0, SVG Export Plug-In . SVG Version: 6.00 Build 0)  -->
<svg version="1.1" id="Layer_1" xmlns="http://www.w3.org/2000/svg" xmlns:xlink="http://www.w3.org/1999/xlink" x="0px" y="0px"
	 viewBox="0 0 60 60" style="enable-background:new 0 0 60 60;" xml:space="preserve">
<style type="text/css">
	.st0{fill-rule:evenodd;clip-rule:evenodd;fill:#191717;}
</style>
<path class="st0" d="M30,0.74c-16.57,0-30,13.43-30,30C0,44,8.6,55.24,20.52,59.21c1.5,0.28,2.05-0.65,2.05-1.45
	c0-0.71-0.03-2.6-0.04-5.1c-8.34,1.81-10.11-4.02-10.11-4.02c-1.36-3.47-3.33-4.39-3.33-4.39c-2.72-1.86,0.21-1.82,0.21-1.82
	c3.01,0.21,4.6,3.09,4.6,3.09c2.68,4.58,7.02,3.26,8.73,2.49c0.27-1.94,1.05-3.26,1.9-4.01c-6.66-0.76-13.67-3.33-13.67-14.83
	c0-3.28,1.17-5.95,3.09-8.05c-0.31-0.76-1.34-3.81,0.29-7.94c0,0,2.52-0.81,8.25,3.08c2.39-0.67,4.96-1,7.51-1.01
	c2.55,0.01,5.11,0.34,7.51,1.01c5.73-3.88,8.24-3.08,8.24-3.08c1.64,4.13,0.61,7.18,0.3,7.94c1.92,2.1,3.08,4.78,3.08,8.05
	c0,11.52-7.01,14.06-13.7,14.8c1.08,0.93,2.04,2.76,2.04,5.56c0,4.01-0.04,7.25-0.04,8.23c0,0.8,0.54,1.74,2.06,1.44
	C51.41,55.23,60,43.99,60,30.74C60,14.17,46.57,0.74,30,0.74z"/>
</svg>
