<?xml version="1.0" encoding="utf-8"?>
<!-- Generator: Adobe Illustrator 24.2.3, SVG Export Plug-In . SVG Version: 6.00 Build 0)  -->
<svg version="1.1" id="Layer_1" xmlns="http://www.w3.org/2000/svg" xmlns:xlink="http://www.w3.org/1999/xlink" x="0px" y="0px"
	 viewBox="0 0 800 500.08" style="enable-background:new 0 0 800 500.08;" xml:space="preserve">
<style type="text/css">
	.st0{fill:#46214A;}
</style>
<path class="st0" d="M426.94,500.08h-88.9V298.29H111.58v201.79h-88.9V16.07h88.9v203.92h226.46V16.07h88.9V500.08z"/>
<path class="st0" d="M573.3,111.32c-29.64,0-53.63-22.58-53.63-50.79C519.67,32.3,543.65,9,573.3,9c29.62,0,53.6,23.3,53.6,51.53
	C626.9,88.74,602.91,111.32,573.3,111.32z"/>
<polygon class="st0" points="531.65,500.08 531.65,166.35 614.92,163.54 614.92,500.08 "/>
<path class="st0" d="M739.07,500.08c-29.64,0-53.63-22.58-53.63-50.79c0-28.24,23.99-51.53,53.63-51.53
	c29.62,0,53.6,23.3,53.6,51.53C792.67,477.5,768.69,500.08,739.07,500.08z"/>
</svg>
